<svg xmlns="http://www.w3.org/2000/svg" width="61.167" height="59.485" viewBox="-18.833 -18.667 61.167 59.485"><path fill="#FFEDB5" d="M39.774 19.175c-.553-.77-1.556-1.07-2.442-.736-.013.002-.025.006-.038.012L22.318 23.44c.003.118 0 .237-.007.36-.124 1.914-1.603 3.45-3.502 3.644l-9.027.935c-.57.06-1.08-.357-1.14-.926-.06-.57.355-1.096.925-1.142l9.023-.938c.894-.097 1.588-.81 1.646-1.71.032-.488-.128-.964-.45-1.33-.324-.373-.773-.592-1.266-.624l-11.98-.784c-1.345-.083-2.682.212-3.863.86L-13.13 30.49l4.28 8.63 3.97-3.463c1.687-1.472 3.92-2.102 6.128-1.735l13.27 2.204c2.433.322 4.87-.282 6.865-1.71l18.07-12.442c.804-.704.95-1.925.32-2.8z"/><g fill="#FEE187"><path d="M18.59 25.374c.894-.097 1.588-.81 1.646-1.71.032-.488-.128-.964-.45-1.33-.327-.373-.773-.592-1.266-.624l-2.664-.174v4.123l2.734-.286zM39.774 19.175c-.553-.77-1.556-1.07-2.442-.736-.013.002-.025.006-.038.012L22.318 23.44c.003.118 0 .237-.007.36-.124 1.914-1.603 3.45-3.502 3.644l-2.95.305v8.46c1.974-.012 3.895-.63 5.527-1.792l18.067-12.44c.805-.708.952-1.93.322-2.803z"/></g><path fill="#FFC61B" d="M25.705-4.94c0-5.807-4.82-10.486-10.677-10.258-5.248.206-9.546 4.43-9.837 9.675-.198 3.602 1.46 6.827 4.106 8.806 1.69 1.263 2.722 3.217 2.722 5.325v3.562c0 1.89 1.533 3.42 3.423 3.42 1.89 0 3.423-1.53 3.423-3.42V8.666c0-2.14 1.045-4.118 2.75-5.405 2.486-1.873 4.092-4.85 4.092-8.2z"/><path fill="#EAA22F" d="M15.345-15.202v30.787c.032.003.064.007.097.007 1.89 0 3.422-1.532 3.422-3.42V8.665c0-2.14 1.045-4.118 2.75-5.405 2.485-1.873 4.092-4.85 4.092-8.2 0-5.702-4.647-10.315-10.36-10.262z"/><path fill="#A6A8AA" d="M12.02 8.748v3.422c0 1.89 1.532 3.42 3.422 3.42 1.89 0 3.422-1.53 3.422-3.42V8.748H12.02z"/><path fill="#808183" d="M15.345 8.748v6.837c.032.003.064.007.097.007 1.89 0 3.422-1.532 3.422-3.42V8.747h-3.52z"/><path fill="#FF5419" d="M13.47 1.385c-.192 0-.383-.058-.55-.18-.416-.304-.506-.887-.203-1.303l2.855-3.91h-2.1c-.353 0-.674-.197-.834-.51s-.128-.69.08-.972l3.94-5.393c.303-.416.888-.507 1.303-.202.418.304.508.887.206 1.303l-2.856 3.91h2.102c.35 0 .672.195.832.508.16.313.13.69-.077.974l-3.943 5.393c-.183.25-.467.382-.755.382z"/><g fill="#C92F00"><path d="M18.166-9.782c.302-.417.212-1-.205-1.305-.414-.303-1-.212-1.303.204l-1.312 1.796v3.164l2.82-3.86zM17.41-5.874h-2.065v1.867h.228l-.228.312V-.53l2.82-3.86c.207-.283.24-.66.078-.973-.16-.314-.482-.51-.832-.51z"/></g><path fill="#D35933" d="M-16.297 30.014l5.438-3.718 6.765 10.808-5.437 3.714"/><path fill="#B54324" d="M-4.095 37.104l-3.428-5.48-5.415 3.757 3.406 5.438"/></svg>