<?xml version="1.0" encoding="utf-8"?>
<!-- Generator: Adobe Illustrator 16.0.0, SVG Export Plug-In . SVG Version: 6.00 Build 0)  -->
<!DOCTYPE svg PUBLIC "-//W3C//DTD SVG 1.1//EN" "http://www.w3.org/Graphics/SVG/1.1/DTD/svg11.dtd">
<svg version="1.1" id="Layer_1" xmlns="http://www.w3.org/2000/svg" xmlns:xlink="http://www.w3.org/1999/xlink" x="0px" y="0px"
	 width="26px" height="26px" viewBox="0 0 26 26" enable-background="new 0 0 26 26" xml:space="preserve">
<path fill="#EFF2FA" d="M25.059,24.655H0.851c-0.495,0-0.896-0.401-0.896-0.896V3.138c0-0.495,0.401-0.896,0.896-0.896h24.208
	c0.494,0,0.896,0.401,0.896,0.896v20.621C25.955,24.254,25.553,24.655,25.059,24.655z"/>
<path fill="#FF6464" d="M25.955,6.724h-26V3.138c0-0.495,0.401-0.896,0.896-0.896h24.208c0.494,0,0.896,0.401,0.896,0.896V6.724z"/>
<rect x="-0.045" y="6.724" fill="#E4EAF6" width="26" height="0.896"/>
<circle fill="#D2555A" cx="3.811" cy="4.259" r="1.345"/>
<path fill="#C7CFE2" d="M3.811,4.931L3.811,4.931c-0.372,0-0.673-0.301-0.673-0.672V2.017c0-0.371,0.301-0.672,0.673-0.672l0,0
	c0.371,0,0.672,0.301,0.672,0.672v2.242C4.483,4.63,4.182,4.931,3.811,4.931z"/>
<path fill="#AFB9D2" d="M3.811,3.586c-0.372,0-0.673-0.301-0.673-0.672v1.345c0,0.371,0.301,0.672,0.673,0.672
	c0.371,0,0.672-0.301,0.672-0.672V2.914C4.483,3.285,4.182,3.586,3.811,3.586z"/>
<circle fill="#D2555A" cx="22.189" cy="4.259" r="1.345"/>
<path fill="#C7CFE2" d="M22.189,4.931L22.189,4.931c-0.371,0-0.672-0.301-0.672-0.672V2.017c0-0.371,0.301-0.672,0.672-0.672l0,0
	c0.371,0,0.673,0.301,0.673,0.672v2.242C22.862,4.63,22.561,4.931,22.189,4.931z"/>
<path fill="#AFB9D2" d="M22.189,3.586c-0.371,0-0.672-0.301-0.672-0.672v1.345c0,0.371,0.301,0.672,0.672,0.672
	s0.673-0.301,0.673-0.672V2.914C22.862,3.285,22.561,3.586,22.189,3.586z"/>
<g>
	<path fill="#FF6464" d="M9.444,19.321c0.1,0.101,0.15,0.222,0.15,0.366s-0.05,0.264-0.15,0.359c-0.1,0.097-0.222,0.145-0.366,0.145
		H4.446c-0.184,0-0.336-0.059-0.456-0.174c-0.12-0.116-0.18-0.266-0.18-0.45c0-0.424,0.118-0.804,0.354-1.14
		c0.236-0.336,0.532-0.648,0.888-0.937s0.742-0.56,1.158-0.815c0.416-0.256,0.802-0.512,1.158-0.769
		c0.356-0.256,0.652-0.52,0.888-0.792c0.236-0.271,0.354-0.544,0.354-0.816c0-0.271-0.034-0.498-0.102-0.678
		s-0.174-0.333-0.318-0.462c-0.32-0.288-0.812-0.432-1.476-0.432c-0.712,0-1.396,0.144-2.052,0.432
		c-0.08,0.041-0.172,0.06-0.276,0.06s-0.198-0.044-0.282-0.132s-0.126-0.216-0.126-0.384s0.088-0.3,0.264-0.396
		c0.816-0.408,1.704-0.612,2.664-0.612c0.784,0,1.436,0.224,1.956,0.672c0.536,0.456,0.804,1.044,0.804,1.764
		c0,0.729-0.364,1.429-1.092,2.101c-0.32,0.288-0.67,0.56-1.05,0.815c-0.38,0.257-0.746,0.502-1.098,0.738s-0.668,0.469-0.948,0.696
		c-0.28,0.228-0.472,0.458-0.576,0.69h4.176C9.222,19.172,9.344,19.222,9.444,19.321z"/>
	<path fill="#FF6464" d="M12.594,15.379c0.6-0.328,1.276-0.492,2.029-0.492c0.887,0,1.584,0.257,2.088,0.769
		c0.471,0.488,0.707,1.136,0.707,1.944c0,1.264-0.604,2.096-1.812,2.496c-0.416,0.144-0.904,0.216-1.464,0.216
		c-0.976,0-1.832-0.231-2.568-0.696c-0.16-0.096-0.24-0.226-0.24-0.39s0.044-0.298,0.132-0.402c0.088-0.104,0.19-0.155,0.306-0.155
		c0.116,0,0.258,0.043,0.426,0.131c0.552,0.289,1.148,0.433,1.788,0.433c1.145,0,1.868-0.292,2.172-0.876
		c0.112-0.216,0.168-0.488,0.168-0.816c0-0.496-0.166-0.888-0.498-1.176s-0.742-0.432-1.229-0.432c-0.744,0-1.404,0.172-1.98,0.516
		c-0.168,0.096-0.336,0.145-0.504,0.145s-0.328-0.062-0.48-0.187s-0.228-0.294-0.228-0.51c0-0.112,0.008-0.208,0.024-0.288
		l0.54-3.192c0.024-0.184,0.094-0.33,0.21-0.438c0.116-0.108,0.258-0.162,0.426-0.162h3.853c0.144,0,0.266,0.05,0.365,0.15
		s0.15,0.222,0.15,0.366s-0.051,0.264-0.15,0.36s-0.222,0.144-0.365,0.144h-3.48L12.594,15.379z"/>
	<path fill="#FF6464" d="M24.234,15.715c0.088,0.089,0.133,0.201,0.133,0.336c0,0.137-0.045,0.246-0.133,0.33
		s-0.199,0.127-0.336,0.127h-1.956v1.968c0,0.136-0.044,0.248-0.132,0.336s-0.2,0.132-0.336,0.132c-0.137,0-0.248-0.044-0.336-0.132
		s-0.133-0.2-0.133-0.336v-1.968h-1.967c-0.137,0-0.246-0.043-0.33-0.127s-0.127-0.193-0.127-0.33c0-0.135,0.043-0.247,0.127-0.336
		c0.084-0.088,0.193-0.131,0.33-0.131h1.967v-1.969c0-0.136,0.045-0.248,0.133-0.336c0.088-0.088,0.199-0.132,0.336-0.132
		c0.136,0,0.248,0.044,0.336,0.132c0.088,0.088,0.132,0.2,0.132,0.336v1.969h1.956C24.035,15.584,24.146,15.627,24.234,15.715z"/>
</g>
</svg>
