<?xml version="1.0" encoding="utf-8"?>
<!-- Generator: Adobe Illustrator 16.0.0, SVG Export Plug-In . SVG Version: 6.00 Build 0)  -->
<!DOCTYPE svg PUBLIC "-//W3C//DTD SVG 1.1//EN" "http://www.w3.org/Graphics/SVG/1.1/DTD/svg11.dtd">
<svg version="1.1" id="Layer_1" xmlns="http://www.w3.org/2000/svg" xmlns:xlink="http://www.w3.org/1999/xlink" x="0px" y="0px"
	 width="76px" height="63px" viewBox="0 0 76 63" enable-background="new 0 0 76 63" xml:space="preserve">
<path fill="#F5D9C3" d="M7.57,5.846v50.933h46.774V5.846H7.57z"/>
<g>
	<rect x="32.517" y="8.963" fill="#6E7881" width="18.711" height="20.789"/>
	<rect x="10.688" y="8.963" fill="#6E7881" width="18.71" height="20.789"/>
	<rect x="10.688" y="32.871" fill="#6E7881" width="18.71" height="20.788"/>
	<rect x="32.517" y="32.871" fill="#6E7881" width="18.711" height="20.788"/>
</g>
<g>
	<path fill="#FCEDE3" d="M31.477,7.924v22.868h20.787V7.924H31.477z M50.187,28.713H33.555V10.003h16.632V28.713z"/>
	<path fill="#FCEDE3" d="M9.649,30.792h20.789V7.924H9.649V30.792z M11.728,10.003h16.631v18.709H11.728V10.003z"/>
	<path fill="#FCEDE3" d="M9.649,54.698h20.789V31.832H9.649V54.698z M11.728,33.909h16.631v18.709H11.728V33.909z"/>
	<path fill="#FCEDE3" d="M31.477,54.698h20.787V31.832H31.477V54.698z M33.555,33.909h16.632v18.709H33.555V33.909z"/>
</g>
<rect x="5.491" y="56.778" fill="#D7B29F" width="50.933" height="4.158"/>
<rect x="5.491" y="1.687" fill="#D7B29F" width="50.933" height="4.159"/>
<path fill="#B45F74" d="M59.543,2.727H2.372c-0.575,0-1.04-0.464-1.04-1.04c0-0.574,0.465-1.039,1.04-1.039h57.171
	c0.573,0,1.039,0.464,1.039,1.039C60.582,2.263,60.116,2.727,59.543,2.727z"/>
<path fill="#B45F74" d="M59.543,61.976H2.372c-0.575,0-1.04-0.465-1.04-1.039c0-0.576,0.465-1.039,1.04-1.039h57.171
	c0.573,0,1.039,0.463,1.039,1.039C60.582,61.511,60.116,61.976,59.543,61.976z"/>
<polygon fill="#919FAA" points="20.043,28.713 13.806,28.713 22.122,10.003 28.358,10.003 "/>
<polygon fill="#919FAA" points="41.871,28.713 35.633,28.713 43.948,10.003 50.187,10.003 "/>
<polygon fill="#919FAA" points="20.043,52.618 13.806,52.618 22.122,33.909 28.358,33.909 "/>
<polygon fill="#919FAA" points="41.871,52.618 35.633,52.618 43.948,33.909 50.187,33.909 "/>
<g>
	<polygon fill="#E39700" points="71.573,60.82 61.674,60.82 61.674,3.069 71.573,3.069 	"/>
	<g>
		<path fill="#EFB754" d="M69.098,8.845c0.002-1.368-1.105-2.477-2.474-2.475c-1.368,0-2.475,1.107-2.475,2.475
			c0,1.367,1.106,2.475,2.475,2.475C67.99,11.32,69.098,10.211,69.098,8.845"/>
		<polygon fill="#EFB754" points="71.573,14.621 69.098,14.621 69.1,12.969 71.573,12.969 		"/>
		<polygon fill="#EFB754" points="71.573,17.919 69.1,17.919 69.1,16.27 71.573,16.269 		"/>
		<polygon fill="#EFB754" points="71.573,21.219 69.098,21.219 69.098,19.571 71.573,19.571 		"/>
		<polygon fill="#EFB754" points="71.573,24.52 69.098,24.52 69.1,22.869 71.575,22.869 		"/>
		<polygon fill="#EFB754" points="71.573,27.819 66.626,27.82 66.622,26.171 71.573,26.17 		"/>
		<polygon fill="#EFB754" points="71.575,31.12 69.098,31.122 69.098,29.47 71.573,29.47 		"/>
		<polygon fill="#EFB754" points="71.573,34.419 69.098,34.419 69.098,32.768 71.573,32.77 		"/>
		<polygon fill="#EFB754" points="71.573,37.72 69.1,37.72 69.1,36.07 71.573,36.07 		"/>
		<polygon fill="#EFB754" points="71.575,41.021 69.1,41.021 69.098,39.371 71.573,39.369 		"/>
		<polygon fill="#EFB754" points="71.573,44.32 66.624,44.318 66.624,42.67 71.575,42.671 		"/>
		<polygon fill="#EFB754" points="71.573,47.619 69.1,47.619 69.1,45.97 71.573,45.97 		"/>
		<polygon fill="#EFB754" points="71.573,50.92 69.1,50.92 69.098,49.269 71.573,49.269 		"/>
		<polygon fill="#EFB754" points="71.573,54.219 69.098,54.219 69.098,52.569 71.573,52.569 		"/>
		<polygon fill="#EFB754" points="71.575,57.521 69.1,57.521 69.1,55.869 71.573,55.869 		"/>
	</g>
</g>
</svg>
