<svg xmlns="http://www.w3.org/2000/svg" width="61.167" height="59.485" viewBox="-18.833 -18.667 61.167 59.485"><path fill="#3083C9" d="M22.494 27.28l-9.505-4.753c-1.228-.614-2.004-1.867-2.004-3.242v-3.73c.267-.304.572-.698.9-1.157 1.296-1.83 2.274-3.842 2.954-5.955 1.22-.375 2.115-1.502 2.115-2.84v-3.98c0-.876-.387-1.66-.994-2.207v-5.754s1.183-8.957-10.945-8.957c-12.13 0-10.947 8.957-10.947 8.957v5.754c-.606.547-.995 1.33-.995 2.206v3.98c0 1.05.55 1.97 1.375 2.505.995 4.33 3.6 7.45 3.6 7.45v3.637c0 1.326-.724 2.545-1.89 3.182l-8.876 4.844c-2.565 1.396-4.16 4.084-4.16 7.006v3.222H26.91v-3.026c-.002-3.026-1.71-5.79-4.416-7.143z"/><path fill="#CB465F" d="M36.928 28.438l-9.725-4.216c-.533-.264-.967-.832-1.273-1.443-.275-.556.14-1.21.756-1.21h6.848s2.516.242 4.45-.59c1.134-.486 1.524-1.913.817-2.923-2.075-2.952-6.364-9.91-6.5-17.093 0 0-.24-11.058-11.15-11.148-2.175.02-3.953.475-5.41 1.184.37 1.492.22 2.662.22 2.662v5.754c.608.547.995 1.33.995 2.206v3.98c0 1.338-.896 2.466-2.115 2.84-.68 2.112-1.658 4.125-2.955 5.956-.327.46-.632.854-.9 1.158v3.73c0 .85.297 1.65.815 2.284h2.737c.682 0 .986.863.447 1.288-.184.146-.36.28-.525.402l8.034 4.02c2.707 1.353 4.414 4.115 4.414 7.14v3.027H40.84v-2.684c0-2.678-1.514-5.13-3.912-6.325z"/></svg>