<svg xmlns="http://www.w3.org/2000/svg" width="61.167" height="59.485" viewBox="-18.833 -18.667 61.167 59.485"><path fill="#998373" d="M-1.537 38.636h34.66v-50.26h-34.66v50.26z"/><path fill="#514439" d="M1.93 38.636H29.66V-8.158H1.93v46.794z"/><path fill="#998373" d="M22.726 16.972h3.466v-3.468h-3.466v3.468z"/><path fill="#E8EDEE" d="M22.726 16.105h-2.6c-.52 0-.865-.348-.865-.867 0-.52.348-.866.865-.866h2.6c.522 0 .87.346.87.866s-.35.867-.87.867"/><path fill="#DBD6D2" d="M39.188 39.5h-46.79c-.52 0-.867-.345-.867-.864s.347-.87.868-.87h46.79c.52 0 .868.35.868.87s-.346.865-.868.865"/><path fill="#EDD9CC" d="M-17.015 1.633H13.94v28.944h-30.955z"/><g fill="#54C0EB"><path d="M-14.6 4.048h11.594V28.2H-14.6zM.015 4.048h11.592V28.2H.015z"/></g><g fill="#84DBFF"><path d="M11.565 4.048L.015 28.16V4.048M-3.048 4.048l-11.55 24.112V4.048"/></g></svg>