<svg xmlns="http://www.w3.org/2000/svg" width="61.167" height="59.485" viewBox="-18.833 -18.667 61.167 59.485"><path fill="#F9F2F2" d="M-8.41 17.554l-4.02 2.005 4.02 2.01"/><path fill="#FF6D3B" d="M-8.41 17.547h38.092v4.017h-38.09z"/><path fill="#F15424" d="M-8.41 19.56h38.092v2.01h-38.09z"/><path fill="#242D3C" d="M-10.86 18.774l-1.57.785 1.573.79"/><path fill="#F9F2F2" d="M29.68 17.547h1.42v4.023h-1.42z"/><path fill="#242D3C" d="M31.1 17.547h3.37v4.023H31.1z"/><g fill="#3E4959"><path d="M12.147-16.94H9.892l-.66 3.284h3.575M4.562-15.51l-1.957 1.13 1.073 3.17 3.096-1.786M-1.294-10.48l-1.128 1.956L.09-6.314l1.786-3.093M-3.852-3.195v2.258l3.284.657v-3.574M-2.422 4.393l1.128 1.955 3.17-1.073L.09 2.18M2.605 10.25l1.957 1.127 2.212-2.513-3.096-1.788M9.892 12.805h2.255l.66-3.283H9.233M17.48 11.377l1.954-1.128-1.073-3.174-3.094 1.788M23.336 6.348l1.13-1.955-2.517-2.212-1.788 3.095M25.892-.937v-2.258l-3.28-.66V-.28M24.465-8.524l-1.13-1.955-3.173 1.073 1.787 3.092M19.434-14.38l-1.956-1.13-2.212 2.514 3.095 1.787"/></g><path fill="#242D3C" d="M11.02-13.792c-6.477 0-11.724 5.25-11.724 11.726C-.704 4.41 4.544 9.66 11.02 9.66S22.744 4.41 22.744-2.066c0-6.478-5.248-11.727-11.724-11.727zm0 14.972c-1.79 0-3.247-1.456-3.247-3.246 0-1.792 1.457-3.247 3.247-3.247 1.79 0 3.247 1.455 3.247 3.247 0 1.79-1.456 3.246-3.247 3.246z"/><g fill="#21D8DE"><path d="M11.02-7.695c-3.11 0-5.625 2.52-5.625 5.63 0 3.108 2.515 5.626 5.625 5.626 3.107 0 5.63-2.517 5.63-5.626 0-3.11-2.523-5.63-5.63-5.63zm0 8.443c-1.55 0-2.814-1.262-2.814-2.813 0-1.553 1.265-2.814 2.814-2.814s2.814 1.263 2.814 2.815c0 1.55-1.265 2.813-2.814 2.813zM-1.23 30.056h28.25v4.978H-1.23z"/></g><path fill="#FFF" d="M22.833 33.857c.725 0 1.317-.592 1.317-1.316 0-.718-.593-1.31-1.317-1.31H2.37c-.718 0-1.31.592-1.31 1.318 0 .717.59 1.31 1.312 1.31h20.46z"/><g fill="#21D8DE"><path d="M-12.43 29.67h6.163l1.66 2.88-1.658 2.868h-6.166c1.04 1.99 3.122 3.358 5.525 3.35 3.44 0 6.23-2.78 6.23-6.227-.004-3.432-2.79-6.22-6.23-6.228-2.403.007-4.487 1.37-5.526 3.358zM25.89 32.55c0 2.402 1.918 4.355 4.29 4.355 2.365 0 4.29-1.953 4.29-4.364 0-2.403-1.925-4.356-4.29-4.35-2.37-.006-4.29 1.947-4.29 4.36zm5.516-2.976l.544 1.198 1.195.54-.46 1.23.46 1.234-1.195.54-.544 1.19-1.228-.46-1.228.467-.545-1.197-1.194-.54.46-1.228-.46-1.236 1.195-.54.545-1.19 1.228.458 1.228-.466z"/></g></svg>