<svg xmlns="http://www.w3.org/2000/svg" width="61.167" height="59.485" viewBox="-18.833 -18.667 61.167 59.485"><path fill="#90DFAA" d="M29.746 12.58V9.516l-2.61-.567c-.056-.51-.17-1.02-.283-1.533-1.477.115-2.953-.113-4.317-.623.514 1.363.854 2.78.854 4.314 0 6.415-5.225 11.637-11.638 11.637C5.335 22.743.114 17.52.114 11.106c0-6.414 5.22-11.638 11.638-11.638 1.53 0 3.01.285 4.312.852-.51-1.42-.736-2.896-.62-4.315l-1.7-.34-.57-2.612h-3.125l-.57 2.61c-.624.114-1.305.228-1.875.4L6.13-6.155 3.293-4.96l.51 2.667c-.51.284-1.02.625-1.478 1.022L.397-2.747-1.988-.76l1.306 2.385c-.397.51-.795 1.08-1.078 1.646l-2.27-.624-1.42 2.725 2.1 1.705c-.17.625-.284 1.25-.398 1.93l-2.383.285-.286 3.064 2.612.794c.056.684.226 1.308.397 1.932l-2.1 1.19.908 2.952 2.726-.282c.34.57.68 1.14 1.08 1.65l-1.42 1.87 1.987 2.383 2.382-1.303c.513.398 1.08.792 1.647 1.08l-.624 2.27 2.725 1.42 1.7-2.1c.626.17 1.25.28 1.93.393l.287 2.387 3.065.282.794-2.61c.68-.06 1.306-.23 1.93-.4l1.19 2.102 2.952-.91-.28-2.723c.62-.34 1.19-.737 1.76-1.19l2.21 1.474 2.16-2.153-1.48-2.27c.4-.51.74-1.08 1.082-1.59l2.61.51 1.193-2.84-2.216-1.59c.173-.624.287-1.248.343-1.932l2.613-.567z"/><g fill="#324A5E"><path d="M7.664 26.21c.17.052.283.052.453.11-.17 2.5-1.248 4.94-3.122 6.813-2.895 2.893-7.04 3.802-10.673 2.723l5.96-5.96-2.1-5.276-5.28-2.1-5.96 6.014c-1.078-3.632-.17-7.774 2.725-10.673 1.93-1.93 4.314-2.95 6.813-3.12 0 .11.057.228.113.398l-2.1 1.19.908 2.952 2.726-.282c.34.57.68 1.133 1.08 1.644l-1.42 1.818 1.987 2.383 2.382-1.303c.513.398 1.08.792 1.647 1.08l-.624 2.27 2.725 1.42 1.76-2.1zM33.836 4.35c-3.24 3.235-8.007 3.975-11.98 2.27L7.21 21.21c.114.288.225.57.34.852-3.067-1.19-5.565-3.632-6.757-6.754.284.112.568.17.853.34L16.293 1c-1.7-3.974-.967-8.743 2.27-11.978 2.896-2.896 7.04-3.804 10.673-2.726l-6.017 5.96 2.1 5.28 5.277 2.1 5.96-5.96c1.082 3.634.172 7.78-2.72 10.673z"/></g></svg>